<svg xmlns="http://www.w3.org/2000/svg" xmlns:xlink="http://www.w3.org/1999/xlink" width="500" zoomAndPan="magnify" viewBox="0 0 375 374.999991" height="500" preserveAspectRatio="xMidYMid meet" version="1.0"><defs><g/><clipPath id="a5639b26c9"><path d="M 38.140625 170.757812 L 348.824219 170.757812 L 348.824219 226.691406 L 38.140625 226.691406 Z M 38.140625 170.757812 " clip-rule="nonzero"/></clipPath><clipPath id="7f800f22e5"><path d="M 106.511719 170.757812 L 348.625 170.757812 L 280.253906 226.691406 L 38.140625 226.691406 Z M 106.511719 170.757812 " clip-rule="nonzero"/></clipPath><clipPath id="781cd36002"><path d="M 38.140625 109.246094 L 303.816406 109.246094 L 303.816406 165.179688 L 38.140625 165.179688 Z M 38.140625 109.246094 " clip-rule="nonzero"/></clipPath><clipPath id="4db57bdfcc"><path d="M 104.527344 109.246094 L 303.6875 109.246094 L 237.300781 165.179688 L 38.140625 165.179688 Z M 104.527344 109.246094 " clip-rule="nonzero"/></clipPath></defs><rect x="-37.5" width="450" fill="#ffffff" y="-37.499999" height="449.999989" fill-opacity="1"/><rect x="-37.5" width="450" fill="#ffffff" y="-37.499999" height="449.999989" fill-opacity="1"/><g clip-path="url(#a5639b26c9)"><g clip-path="url(#7f800f22e5)"><path fill="#767676" d="M 38.140625 170.757812 L 348.605469 170.757812 L 348.605469 226.691406 L 38.140625 226.691406 Z M 38.140625 170.757812 " fill-opacity="1" fill-rule="nonzero"/></g></g><g clip-path="url(#781cd36002)"><g clip-path="url(#4db57bdfcc)"><path fill="#191970" d="M 38.140625 109.246094 L 303.597656 109.246094 L 303.597656 165.179688 L 38.140625 165.179688 Z M 38.140625 109.246094 " fill-opacity="1" fill-rule="nonzero"/></g></g><g fill="#ffffff" fill-opacity="1"><g transform="translate(60.950026, 218.38459)"><g><path d="M 40.84375 -7.65625 C 44.21875 -7.65625 47.269531 -7.925781 50 -8.46875 C 52.726562 -9.019531 55.070312 -10 57.03125 -11.40625 C 58.988281 -12.820312 60.515625 -14.757812 61.609375 -17.21875 C 62.703125 -19.675781 63.25 -22.863281 63.25 -26.78125 C 63.25 -30.414062 62.632812 -33.484375 61.40625 -35.984375 C 60.175781 -38.492188 58.582031 -40.5 56.625 -42 C 54.664062 -43.507812 52.390625 -44.601562 49.796875 -45.28125 C 47.203125 -45.96875 44.535156 -46.3125 41.796875 -46.3125 L 34.15625 -46.3125 L 34.15625 -7.65625 Z M 38.65625 -53.953125 C 45.03125 -53.953125 49.859375 -55.457031 53.140625 -58.46875 C 56.421875 -61.476562 58.0625 -65.847656 58.0625 -71.578125 C 58.0625 -74.953125 57.535156 -77.726562 56.484375 -79.90625 C 55.441406 -82.09375 54.164062 -83.820312 52.65625 -85.09375 C 51.15625 -86.375 49.5625 -87.242188 47.875 -87.703125 C 46.195312 -88.160156 44.675781 -88.390625 43.3125 -88.390625 L 34.15625 -88.390625 L 34.15625 -53.953125 Z M 51.90625 -96.03125 C 55.1875 -96.03125 58.601562 -95.710938 62.15625 -95.078125 C 65.707031 -94.441406 68.941406 -93.28125 71.859375 -91.59375 C 74.773438 -89.90625 77.1875 -87.601562 79.09375 -84.6875 C 81.007812 -81.78125 81.96875 -78.09375 81.96875 -73.625 C 81.96875 -70.070312 81.238281 -66.953125 79.78125 -64.265625 C 78.320312 -61.585938 76.382812 -59.335938 73.96875 -57.515625 C 71.5625 -55.691406 68.875 -54.253906 65.90625 -53.203125 C 62.945312 -52.160156 59.96875 -51.503906 56.96875 -51.234375 L 56.96875 -50.6875 C 60.332031 -50.59375 63.8125 -50.132812 67.40625 -49.3125 C 71.007812 -48.5 74.269531 -47.15625 77.1875 -45.28125 C 80.101562 -43.414062 82.492188 -40.957031 84.359375 -37.90625 C 86.222656 -34.851562 87.15625 -31.097656 87.15625 -26.640625 C 87.15625 -21.359375 86.082031 -17.007812 83.9375 -13.59375 C 81.800781 -10.175781 79.023438 -7.460938 75.609375 -5.453125 C 72.191406 -3.453125 68.296875 -2.039062 63.921875 -1.21875 C 59.554688 -0.40625 55.1875 0 50.8125 0 L 3.96875 0 C 3.96875 -1.269531 3.988281 -2.335938 4.03125 -3.203125 C 4.070312 -4.078125 4.207031 -4.785156 4.4375 -5.328125 C 4.664062 -5.867188 5.003906 -6.300781 5.453125 -6.625 C 5.910156 -6.945312 6.597656 -7.242188 7.515625 -7.515625 C 8.242188 -7.691406 9.109375 -8.117188 10.109375 -8.796875 C 11.109375 -9.484375 11.609375 -11.148438 11.609375 -13.796875 L 11.609375 -81.421875 C 11.609375 -83.878906 11.289062 -85.5625 10.65625 -86.46875 C 10.019531 -87.382812 8.925781 -88.066406 7.375 -88.515625 C 5.644531 -88.972656 4.644531 -89.703125 4.375 -90.703125 C 4.101562 -91.710938 3.96875 -93.488281 3.96875 -96.03125 Z M 51.90625 -96.03125 "/></g></g></g><g fill="#ffffff" fill-opacity="1"><g transform="translate(150.56313, 218.38459)"><g><path d="M 3.421875 -70.359375 C 3.421875 -74.546875 4.328125 -78.367188 6.140625 -81.828125 C 7.960938 -85.285156 10.375 -88.242188 13.375 -90.703125 C 16.382812 -93.160156 19.78125 -95.070312 23.5625 -96.4375 C 27.34375 -97.8125 31.191406 -98.5 35.109375 -98.5 C 37.566406 -98.5 40.023438 -98.203125 42.484375 -97.609375 C 44.941406 -97.015625 47.492188 -96.035156 50.140625 -94.671875 C 51.316406 -94.035156 52.335938 -93.488281 53.203125 -93.03125 C 54.066406 -92.570312 54.863281 -92.34375 55.59375 -92.34375 C 56.144531 -92.34375 56.644531 -92.523438 57.09375 -92.890625 C 57.550781 -93.253906 58.007812 -94.03125 58.46875 -95.21875 L 64.890625 -95.21875 L 64.890625 -71.03125 L 60.375 -71.03125 C 59.375 -71.03125 58.507812 -71.28125 57.78125 -71.78125 C 57.050781 -72.289062 56.4375 -72.90625 55.9375 -73.625 C 55.4375 -74.351562 55.003906 -75.148438 54.640625 -76.015625 C 54.273438 -76.890625 53.957031 -77.6875 53.6875 -78.40625 C 53.050781 -80.050781 52.34375 -81.601562 51.5625 -83.0625 C 50.789062 -84.519531 49.8125 -85.835938 48.625 -87.015625 C 47.445312 -88.203125 45.945312 -89.132812 44.125 -89.8125 C 42.300781 -90.5 40.023438 -90.84375 37.296875 -90.84375 C 35.378906 -90.84375 33.578125 -90.546875 31.890625 -89.953125 C 30.210938 -89.359375 28.734375 -88.515625 27.453125 -87.421875 C 26.179688 -86.335938 25.15625 -85 24.375 -83.40625 C 23.601562 -81.8125 23.21875 -80.054688 23.21875 -78.140625 C 23.21875 -75.859375 23.738281 -73.921875 24.78125 -72.328125 C 25.832031 -70.734375 27.269531 -69.320312 29.09375 -68.09375 C 30.914062 -66.863281 33.03125 -65.75 35.4375 -64.75 C 37.851562 -63.75 40.382812 -62.796875 43.03125 -61.890625 C 46.582031 -60.609375 50.132812 -59.191406 53.6875 -57.640625 C 57.238281 -56.097656 60.398438 -54.164062 63.171875 -51.84375 C 65.953125 -49.519531 68.207031 -46.671875 69.9375 -43.296875 C 71.675781 -39.929688 72.546875 -35.789062 72.546875 -30.875 C 72.546875 -25.957031 71.492188 -21.445312 69.390625 -17.34375 C 67.296875 -13.25 64.519531 -9.742188 61.0625 -6.828125 C 57.601562 -3.910156 53.664062 -1.632812 49.25 0 C 44.832031 1.632812 40.300781 2.453125 35.65625 2.453125 C 31.832031 2.453125 28.53125 2.039062 25.75 1.21875 C 22.96875 0.40625 20.578125 -0.410156 18.578125 -1.234375 C 17.390625 -1.679688 16.382812 -2.066406 15.5625 -2.390625 C 14.75 -2.710938 14.023438 -2.875 13.390625 -2.875 C 11.835938 -2.875 10.925781 -1.914062 10.65625 0 L 2.1875 0 L 2.1875 -25.40625 L 7.65625 -25.40625 C 8.75 -25.40625 9.679688 -24.765625 10.453125 -23.484375 C 11.222656 -22.210938 11.972656 -20.894531 12.703125 -19.53125 C 13.617188 -17.707031 14.691406 -15.929688 15.921875 -14.203125 C 17.148438 -12.472656 18.671875 -10.945312 20.484375 -9.625 C 22.304688 -8.3125 24.492188 -7.242188 27.046875 -6.421875 C 29.597656 -5.597656 32.648438 -5.1875 36.203125 -5.1875 C 38.390625 -5.1875 40.484375 -5.523438 42.484375 -6.203125 C 44.484375 -6.890625 46.234375 -7.894531 47.734375 -9.21875 C 49.242188 -10.539062 50.453125 -12.179688 51.359375 -14.140625 C 52.273438 -16.097656 52.734375 -18.351562 52.734375 -20.90625 C 52.734375 -23.445312 52.140625 -25.648438 50.953125 -27.515625 C 49.765625 -29.390625 48.191406 -31.03125 46.234375 -32.4375 C 44.285156 -33.851562 42.035156 -35.128906 39.484375 -36.265625 C 36.929688 -37.410156 34.289062 -38.523438 31.5625 -39.609375 C 28.09375 -40.984375 24.695312 -42.46875 21.375 -44.0625 C 18.050781 -45.65625 15.046875 -47.613281 12.359375 -49.9375 C 9.671875 -52.257812 7.507812 -55.054688 5.875 -58.328125 C 4.238281 -61.609375 3.421875 -65.617188 3.421875 -70.359375 Z M 3.421875 -70.359375 "/></g></g></g><g fill="#ffffff" fill-opacity="1"><g transform="translate(223.78358, 218.38459)"><g><path d="M 42.21875 -96.03125 C 42.21875 -93.664062 42.035156 -91.9375 41.671875 -90.84375 C 41.304688 -89.75 40.210938 -88.972656 38.390625 -88.515625 C 37.203125 -88.242188 36.242188 -87.695312 35.515625 -86.875 C 34.785156 -86.0625 34.421875 -84.378906 34.421875 -81.828125 L 34.421875 -14.078125 C 34.421875 -11.429688 34.851562 -9.71875 35.71875 -8.9375 C 36.582031 -8.164062 37.609375 -7.644531 38.796875 -7.375 C 40.347656 -6.914062 41.304688 -6.207031 41.671875 -5.25 C 42.035156 -4.300781 42.21875 -2.550781 42.21875 0 L 4.09375 0 C 4.09375 -2.363281 4.25 -4.09375 4.5625 -5.1875 C 4.882812 -6.28125 6.003906 -7.054688 7.921875 -7.515625 C 9.109375 -7.785156 10.066406 -8.328125 10.796875 -9.140625 C 11.523438 -9.960938 11.890625 -11.648438 11.890625 -14.203125 L 11.890625 -82.109375 C 11.890625 -84.648438 11.457031 -86.304688 10.59375 -87.078125 C 9.726562 -87.859375 8.703125 -88.382812 7.515625 -88.65625 C 5.867188 -89.113281 4.882812 -89.863281 4.5625 -90.90625 C 4.25 -91.957031 4.09375 -93.664062 4.09375 -96.03125 Z M 42.21875 -96.03125 "/></g></g></g><g fill="#191970" fill-opacity="1"><g transform="translate(36.750002, 270.080094)"><g><path d="M 9.75 -21.0625 C 11.96875 -21.0625 13.90625 -20.617188 15.5625 -19.734375 C 17.226562 -18.859375 18.515625 -17.625 19.421875 -16.03125 C 20.335938 -14.445312 20.796875 -12.613281 20.796875 -10.53125 C 20.796875 -8.46875 20.335938 -6.632812 19.421875 -5.03125 C 18.515625 -3.4375 17.222656 -2.195312 15.546875 -1.3125 C 13.878906 -0.4375 11.945312 0 9.75 0 L 1.859375 0 L 1.859375 -21.0625 Z M 9.421875 -4.4375 C 11.359375 -4.4375 12.863281 -4.96875 13.9375 -6.03125 C 15.019531 -7.09375 15.5625 -8.59375 15.5625 -10.53125 C 15.5625 -12.46875 15.019531 -13.976562 13.9375 -15.0625 C 12.863281 -16.144531 11.359375 -16.6875 9.421875 -16.6875 L 6.984375 -16.6875 L 6.984375 -4.4375 Z M 9.421875 -4.4375 "/></g></g></g></svg>